# xmcd
# 
# Track frame offsets:
#     150
#     59848
#     158596
#     229202
# 
# Disc length: 4088
# 
# Revision: 1
# Processed by: cddbd v1.5.2PL0 Copyright (c) Steve Scherf et al.
# Submitted via: fre:ac v1.0.17
# 
DISCID=2f0ff604
DTITLE=Albert Camus  - L'Etranger
DYEAR=1986
DGENRE=Livre Audio
TTITLE0=Chapitre 05
TTITLE1=Chapitre 06
TTITLE2=Chapitre 07
TTITLE3=Chapitre 08
EXTD=Lu par Michael Lonsdale
EXTT0=
EXTT1=
EXTT2=
EXTT3=
PLAYORDER=
